# xmcd
# 
# Track frame offsets:
#     150
#     14823
#     29075
#     45607
#     58696
#     72216
#     86079
#     103510
#     119367
#     136494
#     149796
# 
# Disc length: 2211
# 
# Revision: 5
# Processed by: cddbd v1.5.2PL0 Copyright (c) Steve Scherf et al.
# Submitted via: fre:ac v1.0.31
# 
DISCID=ab08a10b
DTITLE=Gretchen Wilson - I Got Your Country Right Here
DYEAR=2010
DGENRE=Country
TTITLE0=I Got Your Country Right Here
TTITLE1=Work Hard, Play Harder
TTITLE2=I'm Only Human
TTITLE3=Earrings Song
TTITLE4=Trucker Man
TTITLE5=Blue Collar Done Turn Red
TTITLE6=Outlaws And Renegades
TTITLE7=Walk On Water
TTITLE8=Love On The Line
TTITLE9=As Far As You Know
TTITLE10=I'd Love To Be Your Last
EXTD=
EXTT0=
EXTT1=
EXTT2=
EXTT3=
EXTT4=
EXTT5=
EXTT6=
EXTT7=
EXTT8=
EXTT9=
EXTT10=
PLAYORDER=
